<?xml version="1.0" standalone="no"?>
<!DOCTYPE svg PUBLIC "-//W3C//DTD SVG 20010904//EN"
 "http://www.w3.org/TR/2001/REC-SVG-20010904/DTD/svg10.dtd">
<svg version="1.0" xmlns="http://www.w3.org/2000/svg"
 width="432.000000pt" height="432.000000pt" viewBox="0 0 432.000000 432.000000"
 preserveAspectRatio="xMidYMid meet">
<metadata>
Created by potrace 1.14, written by Peter Selinger 2001-2017
</metadata>
<g transform="translate(0.000000,432.000000) scale(0.100000,-0.100000)"
fill="#000000" stroke="none">
<path d="M3320 3542 c0 -5 -12 -12 -27 -15 -16 -3 -50 -20 -78 -38 -27 -18
-86 -56 -130 -84 -44 -28 -107 -69 -139 -90 -33 -21 -65 -38 -72 -38 -7 0 -11
-4 -8 -9 3 -4 -3 -11 -13 -15 -10 -3 -30 -15 -45 -25 -15 -10 -34 -15 -45 -12
-12 4 -14 3 -5 -3 9 -7 4 -15 -18 -31 -16 -12 -32 -22 -35 -22 -4 0 -21 -11
-39 -25 -18 -14 -35 -25 -38 -25 -3 0 -46 -26 -94 -59 -124 -81 -174 -112
-174 -107 0 3 -12 -6 -26 -19 -15 -14 -30 -22 -34 -20 -5 3 -10 1 -12 -3 -1
-5 -31 -27 -65 -51 l-63 -42 -32 23 c-18 13 -36 27 -39 31 -3 5 -9 8 -13 8 -3
-1 -30 14 -59 32 -29 19 -63 39 -75 46 -12 7 -20 16 -17 20 2 5 -3 8 -13 7
-12 -1 -16 5 -14 19 2 14 0 16 -6 7 -7 -10 -31 1 -105 48 -53 34 -94 66 -91
71 3 5 -1 6 -9 3 -8 -3 -21 1 -28 8 -8 7 -26 19 -41 27 -15 8 -36 22 -47 32
-10 10 -21 16 -23 13 -3 -2 -17 7 -31 20 -15 14 -27 23 -27 20 0 -2 -11 3 -25
12 -14 9 -22 21 -18 27 3 6 1 7 -6 3 -7 -5 -46 14 -94 46 -45 30 -99 65 -120
77 -20 13 -34 27 -31 33 4 7 2 8 -4 4 -7 -4 -44 14 -83 39 -108 70 -191 68
-252 -4 -13 -16 -27 -28 -30 -25 -3 3 -5 -1 -4 -8 1 -40 -4 -59 -15 -52 -7 5
-8 3 -4 -5 5 -7 10 -27 13 -44 3 -18 9 -39 14 -48 4 -9 5 -19 2 -23 -3 -3 -1
-6 5 -6 7 0 12 -4 12 -10 0 -5 14 -39 30 -76 17 -36 32 -71 33 -77 1 -7 4 -14
7 -17 10 -9 63 -134 63 -147 0 -7 4 -13 8 -13 11 0 30 -61 22 -73 -3 -5 -1 -7
4 -4 10 6 58 -93 53 -109 -1 -4 2 -10 7 -13 11 -7 69 -143 65 -153 -1 -5 2 -8
7 -8 9 0 26 -48 23 -62 -1 -5 3 -8 9 -8 6 0 8 -7 5 -16 -4 -10 -2 -13 6 -8 8
5 9 2 5 -9 -3 -10 -3 -17 2 -17 5 0 16 -19 26 -42 9 -24 24 -58 32 -76 14 -29
14 -35 2 -44 -11 -8 -11 -9 3 -5 12 4 21 -5 32 -34 9 -22 13 -45 10 -51 -4 -6
-3 -8 3 -5 13 8 36 -41 27 -55 -5 -7 -2 -8 6 -3 10 6 12 3 8 -13 -4 -12 -2
-20 2 -17 8 5 26 -33 22 -47 -1 -5 2 -8 8 -8 6 0 9 -3 8 -7 -1 -8 12 -39 55
-133 11 -25 20 -51 20 -57 0 -7 4 -13 8 -13 4 0 12 -14 18 -31 14 -40 14 -42
-1 -32 -7 4 -17 8 -23 9 -15 2 -178 64 -197 75 -10 5 -25 9 -33 9 -10 0 -13 5
-9 12 5 7 3 8 -5 4 -7 -5 -24 -3 -39 3 -15 6 -40 16 -57 22 -16 7 -32 13 -35
14 -3 0 -32 11 -65 24 -117 45 -207 26 -252 -55 -29 -51 -29 -86 3 -194 14
-50 22 -95 18 -101 -4 -7 -3 -9 2 -6 6 3 26 -51 46 -121 20 -70 49 -167 63
-217 15 -49 29 -97 30 -105 2 -8 4 -15 5 -15 1 0 3 -8 6 -18 14 -58 28 -88 56
-117 12 -13 22 -28 20 -33 -1 -5 2 -6 7 -3 13 8 189 -77 208 -101 8 -10 12
-12 8 -5 -8 16 -3 15 39 -5 19 -9 32 -21 29 -26 -3 -6 -1 -7 4 -4 13 8 65 -17
56 -27 -4 -4 0 -4 9 -1 8 3 23 -2 33 -12 10 -10 19 -16 20 -13 2 7 109 -43
113 -52 2 -5 8 -8 13 -8 20 0 219 -102 214 -109 -2 -5 1 -9 8 -8 32 1 48 -4
42 -13 -3 -6 1 -7 9 -4 9 4 18 -1 22 -10 3 -9 10 -14 14 -11 12 7 81 -30 73
-40 -4 -4 -3 -5 3 -2 6 4 48 -9 93 -29 104 -45 152 -43 264 10 43 20 84 33 90
30 7 -4 9 -4 5 1 -7 7 90 63 117 68 6 1 12 4 15 7 3 3 32 19 65 34 33 15 80
38 105 51 25 12 51 20 59 17 8 -2 11 0 8 5 -8 13 41 36 55 27 6 -4 8 -3 5 3
-8 12 61 46 75 37 6 -4 8 -3 5 3 -6 9 204 118 228 118 6 0 15 6 20 13 6 7 17
14 25 16 25 4 115 53 129 70 7 9 18 13 25 9 6 -3 8 -3 4 2 -4 4 1 24 11 44 9
20 37 106 61 191 24 85 46 157 49 160 4 3 6 10 6 15 1 34 28 114 38 108 6 -4
7 -1 3 6 -13 20 35 171 53 171 13 0 14 2 2 9 -11 7 -11 15 -2 41 6 18 11 49
11 69 0 60 -61 142 -111 150 -13 1 -31 7 -40 12 -9 4 -19 5 -23 2 -4 -4 -13
-8 -20 -9 -7 -1 -83 -27 -169 -59 -86 -31 -161 -53 -168 -49 -8 4 -9 3 -5 -4
4 -7 2 -13 -3 -13 -15 -2 -23 -4 -46 -14 -117 -48 -165 -62 -165 -49 0 9 4 12
10 9 6 -3 7 1 4 9 -3 9 -1 16 5 16 6 0 10 3 9 8 -4 12 45 122 54 122 5 0 7 4
3 9 -5 9 55 149 90 213 8 14 15 31 15 36 0 6 15 43 33 84 19 40 42 92 52 115
10 23 22 40 28 36 6 -3 7 -1 3 5 -4 6 5 36 19 67 14 31 25 60 25 65 0 6 4 10
10 10 5 0 9 3 7 8 -4 13 85 212 95 212 5 0 7 4 3 9 -3 5 0 21 6 35 10 22 15
24 27 13 13 -10 14 -9 3 8 -10 17 -6 34 32 117 24 54 48 94 52 90 5 -4 5 -2 2
5 -4 6 7 42 25 80 17 37 32 70 33 73 1 3 9 23 20 45 23 50 23 120 2 162 -22
41 -76 83 -116 88 -17 2 -35 6 -41 10 -5 3 -10 2 -10 -3z"/>
<path d="M3115 3520 c-3 -5 -1 -10 4 -10 6 0 11 5 11 10 0 6 -2 10 -4 10 -3 0
-8 -4 -11 -10z"/>
<path d="M1466 3318 c3 -5 10 -6 15 -3 13 9 11 12 -6 12 -8 0 -12 -4 -9 -9z"/>
<path d="M1759 3133 c-13 -16 -12 -17 4 -4 9 7 17 15 17 17 0 8 -8 3 -21 -13z"/>
<path d="M910 3041 c0 -6 4 -13 10 -16 6 -3 7 1 4 9 -7 18 -14 21 -14 7z"/>
<path d="M3195 2101 c-3 -5 -2 -12 3 -15 5 -3 9 1 9 9 0 17 -3 19 -12 6z"/>
<path d="M3007 1999 c7 -7 15 -10 18 -7 3 3 -2 9 -12 12 -14 6 -15 5 -6 -5z"/>
<path d="M1235 1960 c-3 -5 -1 -10 4 -10 6 0 11 5 11 10 0 6 -2 10 -4 10 -3 0
-8 -4 -11 -10z"/>
<path d="M1293 1945 c0 -8 4 -12 9 -9 5 3 6 10 3 15 -9 13 -12 11 -12 -6z"/>
<path d="M2974 1942 c4 -3 14 -7 22 -8 9 -1 13 0 10 4 -4 3 -14 7 -22 8 -9 1
-13 0 -10 -4z"/>
<path d="M1410 1900 c0 -5 5 -10 11 -10 5 0 7 5 4 10 -3 6 -8 10 -11 10 -2 0
-4 -4 -4 -10z"/>
<path d="M2890 1899 c0 -5 5 -7 10 -4 6 3 10 8 10 11 0 2 -4 4 -10 4 -5 0 -10
-5 -10 -11z"/>
<path d="M2935 1900 c-3 -5 -1 -10 4 -10 6 0 11 5 11 10 0 6 -2 10 -4 10 -3 0
-8 -4 -11 -10z"/>
<path d="M1417 1835 c-4 -8 -3 -16 1 -19 4 -3 9 4 9 15 2 23 -3 25 -10 4z"/>
<path d="M2710 626 c0 -2 7 -7 16 -10 8 -3 12 -2 9 4 -6 10 -25 14 -25 6z"/>
<path d="M1747 559 c7 -7 15 -10 18 -7 3 3 -2 9 -12 12 -14 6 -15 5 -6 -5z"/>
</g>
</svg>
